<svg width="36" height="36" viewBox="0 0 36 36" fill="none" xmlns="http://www.w3.org/2000/svg">
<rect width="36" height="36" rx="18" fill="#F5F5F5"/>
<g clip-path="url(#clip0_43518_13675)">
<path d="M28.1413 22.5601H7.85872C6.8333 22.5601 6 21.7268 6 20.699V14.8587C6 13.8333 6.8333 13 7.85872 13H28.1413C29.1691 13 30 13.8333 30 14.8587V20.699C30 21.7268 29.1667 22.5601 28.1413 22.5601Z" fill="url(#paint0_linear_43518_13675)"/>
<path d="M26.7701 16.033L25.4877 20.9344L25.4829 20.944H26.4843L27.7715 16.033H26.7701Z" fill="#292929"/>
<path d="M10.8869 18.8211C10.7548 18.8907 10.5747 18.9316 10.4042 18.9316C10.044 18.9316 9.83987 18.8739 9.81826 18.5833V18.5641C9.81826 18.5521 9.81585 18.5401 9.81585 18.5281V17.6828L9.81826 17.5819V16.984H9.81585V16.7294L9.81826 16.6286V16.0522L8.92492 16.1699C9.53008 16.0522 9.87589 15.5743 9.87589 15.0989V14.8059H8.87209V16.1771L8.81445 16.1939V18.7346C8.84807 19.4479 9.31876 19.8729 10.0896 19.8729C10.3634 19.8729 10.6636 19.8105 10.8941 19.7072L10.8989 19.7048V18.8139L10.8869 18.8211Z" fill="#292929"/>
<path d="M11.0454 15.8481L8.22852 16.2828V16.996L11.0454 16.5613V15.8481Z" fill="#292929"/>
<path d="M11.0454 16.8927L8.22852 17.3274V18.0094L11.0454 17.5747V16.8927Z" fill="#292929"/>
<path d="M14.2034 17.2217C14.1625 16.4293 13.6679 15.9586 12.861 15.9586C12.3975 15.9586 12.0133 16.1387 11.7539 16.4773C11.4945 16.8159 11.3577 17.313 11.3577 17.9157C11.3577 18.5185 11.4945 19.018 11.7539 19.3542C12.0133 19.6928 12.3975 19.8729 12.861 19.8729C13.6679 19.8729 14.165 19.3998 14.2034 18.6026V19.7985H15.2072V16.0402L14.2034 16.1939V17.2217ZM14.2562 17.9157C14.2562 18.6194 13.8864 19.0732 13.3172 19.0732C12.7289 19.0732 12.3783 18.641 12.3783 17.9157C12.3783 17.1881 12.7289 16.751 13.3172 16.751C13.603 16.751 13.8432 16.8615 14.0089 17.0728C14.1698 17.2818 14.2562 17.5723 14.2562 17.9157Z" fill="#292929"/>
<path d="M18.1345 15.9586C17.3253 15.9586 16.8306 16.4292 16.7921 17.2241V14.9476L15.7883 15.1013V19.7985H16.7921V18.6026C16.8306 19.3998 17.3277 19.8729 18.1345 19.8729C19.0807 19.8729 19.645 19.1405 19.645 17.9157C19.645 16.691 19.0807 15.9586 18.1345 15.9586ZM17.6783 19.0732C17.1067 19.0732 16.7393 18.6194 16.7393 17.9157C16.7393 17.5723 16.8258 17.2818 16.9866 17.0752C17.1523 16.8639 17.3925 16.7534 17.6783 16.7534C18.2666 16.7534 18.6172 17.1881 18.6172 17.9181C18.6172 18.641 18.2666 19.0732 17.6783 19.0732Z" fill="#292929"/>
<path d="M22.3755 15.9586C21.5662 15.9586 21.0715 16.4292 21.0331 17.2241V14.9476L20.0293 15.1013V19.7985H21.0331V18.6026C21.0715 19.3998 21.5686 19.8729 22.3755 19.8729C23.3217 19.8729 23.886 19.1405 23.886 17.9157C23.886 16.691 23.3217 15.9586 22.3755 15.9586ZM21.9216 19.0732C21.3501 19.0732 20.9827 18.6194 20.9827 17.9157C20.9827 17.5723 21.0691 17.2818 21.23 17.0752C21.3957 16.8639 21.6359 16.7534 21.9216 16.7534C22.51 16.7534 22.8606 17.1881 22.8606 17.9181C22.8606 18.641 22.51 19.0732 21.9216 19.0732Z" fill="#292929"/>
<path d="M23.8884 16.033H24.9595L25.8312 19.7937H24.8706L23.8884 16.033Z" fill="#292929"/>
</g>
<defs>
<linearGradient id="paint0_linear_43518_13675" x1="6" y1="17.7797" x2="30.0002" y2="17.7797" gradientUnits="userSpaceOnUse">
<stop stop-color="#3BFF9D"/>
<stop offset="1" stop-color="#3BFFC8"/>
</linearGradient>
<clipPath id="clip0_43518_13675">
<rect width="24" height="9.56014" fill="white" transform="translate(6 13)"/>
</clipPath>
</defs>
</svg>
