<svg width="160" height="160" viewBox="0 0 160 160" fill="none" xmlns="http://www.w3.org/2000/svg">
<rect width="160" height="160" rx="80" fill="#F5F5F5"/>
<g clip-path="url(#clip0_6878_25897)">
<path d="M80.2992 113.8C71.3659 113.8 63.6326 110.817 57.0992 104.85C50.5659 98.8833 46.9326 91.4667 46.1992 82.6V82.1L44.6992 83.6C43.6326 84.6667 42.3992 85.1833 40.9992 85.15C39.5992 85.1167 38.3659 84.5667 37.2992 83.5C36.2326 82.4333 35.6992 81.1833 35.6992 79.75C35.6992 78.3167 36.2326 77.0667 37.2992 76L47.7992 65.5C48.8659 64.4333 50.0992 63.9 51.4992 63.9C52.8992 63.9 54.1326 64.4333 55.1992 65.5L65.8992 76.2C66.8992 77.2 67.3992 78.4 67.3992 79.8C67.3992 81.2 66.8992 82.4333 65.8992 83.5C64.8992 84.5667 63.6659 85.1 62.1992 85.1C60.7326 85.1 59.4659 84.5667 58.3992 83.5L56.8992 82V82.5C57.4326 88.1667 59.8992 93.0333 64.2992 97.1C68.6992 101.167 74.0326 103.2 80.2992 103.2C81.2326 103.2 82.1492 103.133 83.0492 103C83.9492 102.867 84.8326 102.7 85.6992 102.5C87.1659 102.167 88.5992 102.217 89.9992 102.65C91.3992 103.083 92.4659 103.967 93.1992 105.3C93.9326 106.633 94.0492 107.983 93.5492 109.35C93.0492 110.717 92.0992 111.633 90.6992 112.1C89.0326 112.633 87.3326 113.05 85.5992 113.35C83.8659 113.65 82.0992 113.8 80.2992 113.8ZM79.6992 56.4C78.7659 56.4 77.8492 56.45 76.9492 56.55C76.0492 56.65 75.1326 56.8333 74.1992 57.1C72.7326 57.4333 71.2992 57.3833 69.8992 56.95C68.4992 56.5167 67.4326 55.6333 66.6992 54.3C65.9659 52.9667 65.8492 51.6333 66.3492 50.3C66.8492 48.9667 67.7659 48.0667 69.0992 47.6C70.8326 47 72.5659 46.55 74.2992 46.25C76.0326 45.95 77.8326 45.8 79.6992 45.8C88.6326 45.8 96.3659 48.7833 102.899 54.75C109.433 60.7167 113.066 68.1333 113.799 77V77.5L115.299 76C116.366 74.9333 117.599 74.4167 118.999 74.45C120.399 74.4833 121.633 75.0333 122.699 76.1C123.766 77.1667 124.299 78.4167 124.299 79.85C124.299 81.2833 123.766 82.5333 122.699 83.6L112.199 94.1C111.133 95.1667 109.899 95.7 108.499 95.7C107.099 95.7 105.866 95.1667 104.799 94.1L94.0992 83.4C93.0992 82.4 92.5992 81.2 92.5992 79.8C92.5992 78.4 93.0992 77.1667 94.0992 76.1C95.0992 75.0333 96.3326 74.5 97.7992 74.5C99.2659 74.5 100.533 75.0333 101.599 76.1L103.099 77.6V77.1C102.566 71.4333 100.099 66.5667 95.6992 62.5C91.2992 58.4333 85.9659 56.4 79.6992 56.4Z" fill="#75428E"/>
</g>
<defs>
<clipPath id="clip0_6878_25897">
<rect width="96" height="96" fill="white" transform="translate(32 32)"/>
</clipPath>
</defs>
</svg>
