<svg width="36" height="36" viewBox="0 0 36 36" fill="none" xmlns="http://www.w3.org/2000/svg">
<rect width="36" height="36" rx="18" fill="#F5F5F5"/>
<path d="M28 23.381C28 24.4329 27.1471 25.2857 26.0952 25.2857H9.90476C8.85286 25.2857 8 24.4329 8 23.381V12.9048C8 11.8529 8.85286 11 9.90476 11H26.0952C27.1471 11 28 11.8529 28 12.9048V23.381Z" fill="#1565C0"/>
<path d="M13.8028 15.7619L12.5523 19.4914C12.5523 19.4914 12.2347 17.9138 12.2033 17.7157C11.4914 16.0914 10.4409 16.1819 10.4409 16.1819L11.679 21V20.999H13.1843L15.2657 15.7619H13.8028ZM14.9947 21H16.3619L17.1885 15.7619H15.8043L14.9947 21ZM24.6704 15.7619H23.2319L20.989 21H22.3471L22.6271 20.2519H24.3395L24.4852 21H25.7295L24.6704 15.7619ZM23.0062 19.2514L23.7504 17.2719L24.14 19.2514H23.0062ZM19.1281 17.2886C19.1281 17 19.3652 16.7852 20.0452 16.7852C20.4871 16.7852 20.9933 17.1062 20.9933 17.1062L21.2152 16.0067C21.2152 16.0067 20.5685 15.7614 19.9338 15.7614C18.4962 15.7614 17.7547 16.449 17.7547 17.3195C17.7547 18.8938 19.6495 18.6781 19.6495 19.4867C19.6495 19.6252 19.5395 19.9457 18.7504 19.9457C17.959 19.9457 17.4366 19.6557 17.4366 19.6557L17.2009 20.7109C17.2009 20.7109 17.7071 20.9995 18.6852 20.9995C19.6657 20.9995 21.0257 20.2662 21.0257 19.2128C21.0257 17.9457 19.1281 17.8543 19.1281 17.2886Z" fill="white"/>
<path d="M12.3866 18.5928L11.9266 16.3319C11.9266 16.3319 11.7185 15.8419 11.1775 15.8419C10.6366 15.8419 9.06323 15.8419 9.06323 15.8419C9.06323 15.8419 11.7589 16.638 12.3866 18.5928Z" fill="#FFC107"/>
</svg>
