<svg width="24" height="24" viewBox="0 0 24 24" fill="none" xmlns="http://www.w3.org/2000/svg">
<path d="M15.6602 13.868C18.061 10.4779 17.2581 5.78355 13.868 3.38335C10.4779 0.983145 5.78355 1.78551 3.38335 5.17619C0.983145 8.5663 1.78551 13.26 5.17619 15.6602C7.59589 17.3734 10.795 17.5053 13.3472 15.998L18.8926 21.5102C19.4914 22.1405 20.4876 22.1657 21.1179 21.567C21.7482 20.9688 21.7734 19.9726 21.1753 19.3423C21.1563 19.3222 21.138 19.3038 21.1179 19.2849L15.6602 13.868ZM9.51721 14.3818C6.83827 14.3824 4.66633 12.2122 4.66461 9.53326C4.66403 6.85433 6.83425 4.68238 9.51376 4.68124C12.1893 4.68009 14.3601 6.84687 14.3652 9.52237C14.3698 12.2019 12.2007 14.3773 9.52065 14.3818C9.5195 14.3818 9.51893 14.3818 9.51721 14.3818Z" fill="#333333"/>
</svg>
