<svg width="174" height="33" viewBox="0 0 174 33" fill="none" xmlns="http://www.w3.org/2000/svg">
<path d="M6.736 14.192C3.248 14.192 0.848 11.744 0.848 8.432V8.4C0.848 5.216 3.328 2.608 6.72 2.608C8.416 2.608 9.536 2.992 10.544 3.696C10.784 3.872 11.056 4.208 11.056 4.688C11.056 5.36 10.512 5.904 9.84 5.904C9.488 5.904 9.264 5.776 9.088 5.648C8.416 5.168 7.696 4.88 6.64 4.88C4.848 4.88 3.424 6.464 3.424 8.368V8.4C3.424 10.448 4.832 11.952 6.816 11.952C7.712 11.952 8.512 11.728 9.136 11.28V9.68H7.472C6.88 9.68 6.4 9.216 6.4 8.624C6.4 8.032 6.88 7.552 7.472 7.552H10.288C10.976 7.552 11.52 8.096 11.52 8.784V11.504C11.52 12.224 11.248 12.72 10.656 13.072C9.744 13.632 8.416 14.192 6.736 14.192ZM12.7849 12.88V6.544C12.7849 5.872 13.3289 5.328 14.0009 5.328C14.6729 5.328 15.2169 5.872 15.2169 6.544V6.928C15.5689 6.096 16.1449 5.328 16.8649 5.328C17.6169 5.328 18.0489 5.824 18.0489 6.512C18.0489 7.152 17.6329 7.536 17.1369 7.648C15.9049 7.936 15.2169 8.88 15.2169 10.608V12.88C15.2169 13.552 14.6729 14.096 14.0009 14.096C13.3289 14.096 12.7849 13.552 12.7849 12.88ZM22.596 14.192C19.94 14.192 17.972 12.224 17.972 9.76V9.728C17.972 7.264 19.956 5.264 22.628 5.264C25.284 5.264 27.252 7.232 27.252 9.696V9.728C27.252 12.192 25.268 14.192 22.596 14.192ZM22.628 12.096C24.02 12.096 24.852 11.024 24.852 9.76V9.728C24.852 8.464 23.94 7.36 22.596 7.36C21.204 7.36 20.372 8.432 20.372 9.696V9.728C20.372 10.992 21.284 12.096 22.628 12.096ZM32.211 14.192C29.635 14.192 27.747 12.208 27.747 9.76V9.728C27.747 7.28 29.619 5.264 32.243 5.264C33.539 5.264 34.451 5.616 35.171 6.224C35.331 6.352 35.555 6.64 35.555 7.056C35.555 7.664 35.059 8.144 34.451 8.144C34.131 8.144 33.891 8.016 33.747 7.904C33.315 7.568 32.867 7.36 32.227 7.36C31.011 7.36 30.147 8.432 30.147 9.696V9.728C30.147 11.04 30.995 12.096 32.323 12.096C32.963 12.096 33.459 11.872 33.923 11.504C34.051 11.408 34.291 11.28 34.579 11.28C35.155 11.28 35.603 11.744 35.603 12.32C35.603 12.64 35.459 12.896 35.251 13.088C34.531 13.744 33.619 14.192 32.211 14.192ZM38.1872 9.04H41.8512C41.7072 7.952 41.0672 7.216 40.0432 7.216C39.0352 7.216 38.3792 7.936 38.1872 9.04ZM43.2592 13.152C42.5072 13.792 41.5312 14.192 40.2832 14.192C37.7072 14.192 35.8032 12.384 35.8032 9.76V9.728C35.8032 7.28 37.5472 5.264 40.0432 5.264C42.9072 5.264 44.1712 7.616 44.1712 9.392C44.1712 10.096 43.6752 10.56 43.0352 10.56H38.2192C38.4592 11.664 39.2272 12.24 40.3152 12.24C40.9872 12.24 41.5472 12.032 42.0432 11.664C42.2192 11.536 42.3792 11.472 42.6352 11.472C43.1792 11.472 43.5792 11.888 43.5792 12.432C43.5792 12.752 43.4352 12.992 43.2592 13.152ZM45.1818 12.88V6.544C45.1818 5.872 45.7258 5.328 46.3978 5.328C47.0698 5.328 47.6138 5.872 47.6138 6.544V6.928C47.9658 6.096 48.5418 5.328 49.2618 5.328C50.0138 5.328 50.4458 5.824 50.4458 6.512C50.4458 7.152 50.0298 7.536 49.5338 7.648C48.3018 7.936 47.6138 8.88 47.6138 10.608V12.88C47.6138 13.552 47.0698 14.096 46.3978 14.096C45.7258 14.096 45.1818 13.552 45.1818 12.88ZM50.9873 3.408V3.376C50.9873 2.672 51.5793 2.24 52.3473 2.24C53.1153 2.24 53.7073 2.672 53.7073 3.376V3.408C53.7073 4.112 53.1153 4.56 52.3473 4.56C51.5793 4.56 50.9873 4.112 50.9873 3.408ZM51.1313 12.88V6.544C51.1313 5.872 51.6753 5.328 52.3473 5.328C53.0193 5.328 53.5633 5.872 53.5633 6.544V12.88C53.5633 13.552 53.0193 14.096 52.3473 14.096C51.6753 14.096 51.1313 13.552 51.1313 12.88ZM56.9654 9.04H60.6294C60.4854 7.952 59.8454 7.216 58.8214 7.216C57.8134 7.216 57.1574 7.936 56.9654 9.04ZM62.0374 13.152C61.2854 13.792 60.3094 14.192 59.0614 14.192C56.4854 14.192 54.5814 12.384 54.5814 9.76V9.728C54.5814 7.28 56.3254 5.264 58.8214 5.264C61.6854 5.264 62.9494 7.616 62.9494 9.392C62.9494 10.096 62.4534 10.56 61.8134 10.56H56.9974C57.2374 11.664 58.0054 12.24 59.0934 12.24C59.7654 12.24 60.3254 12.032 60.8214 11.664C60.9974 11.536 61.1574 11.472 61.4134 11.472C61.9574 11.472 62.3574 11.888 62.3574 12.432C62.3574 12.752 62.2134 12.992 62.0374 13.152ZM66.9679 14.16C65.9119 14.16 64.7759 13.856 63.7359 13.184C63.4799 13.024 63.2719 12.736 63.2719 12.352C63.2719 11.808 63.6879 11.392 64.2319 11.392C64.4079 11.392 64.5839 11.44 64.7119 11.52C65.5279 12.032 66.3439 12.288 67.0319 12.288C67.7359 12.288 68.0559 12.032 68.0559 11.648V11.616C68.0559 11.088 67.2239 10.912 66.2799 10.624C65.0799 10.272 63.7199 9.712 63.7199 8.048V8.016C63.7199 6.272 65.1279 5.296 66.8559 5.296C67.7519 5.296 68.6799 5.536 69.5119 5.952C69.8639 6.128 70.0879 6.448 70.0879 6.864C70.0879 7.408 69.6559 7.824 69.1119 7.824C68.9359 7.824 68.8239 7.792 68.6639 7.712C67.9759 7.376 67.3199 7.168 66.8079 7.168C66.2159 7.168 65.9119 7.424 65.9119 7.76V7.792C65.9119 8.272 66.7279 8.496 67.6559 8.816C68.8559 9.216 70.2479 9.792 70.2479 11.36V11.392C70.2479 13.296 68.8239 14.16 66.9679 14.16ZM83.392 14.16C83.056 14.16 82.832 14.064 82.576 13.808L81.632 12.864C80.72 13.648 79.632 14.16 78.304 14.16C76.16 14.16 74.544 12.912 74.544 10.928V10.896C74.544 9.472 75.312 8.464 76.72 7.824C76.16 7.056 75.936 6.352 75.936 5.584V5.552C75.936 4.016 77.168 2.608 79.328 2.608C81.232 2.608 82.48 3.856 82.48 5.424V5.456C82.48 6.96 81.52 7.84 80.144 8.384L81.616 9.84C81.872 9.456 82.112 9.056 82.352 8.624C82.464 8.4 82.784 8.064 83.264 8.064C83.824 8.064 84.288 8.528 84.288 9.088C84.288 9.264 84.24 9.44 84.144 9.6C83.824 10.16 83.456 10.736 83.072 11.28L84.096 12.288C84.32 12.512 84.464 12.752 84.464 13.088C84.464 13.696 84 14.16 83.392 14.16ZM78.848 7.088C79.824 6.72 80.336 6.32 80.336 5.6V5.568C80.336 4.928 79.904 4.528 79.28 4.528C78.624 4.528 78.192 4.992 78.192 5.664V5.696C78.192 6.192 78.384 6.56 78.848 7.088ZM78.592 12.144C79.168 12.144 79.712 11.888 80.224 11.472L78.08 9.312C77.328 9.712 77.024 10.24 77.024 10.8V10.832C77.024 11.616 77.68 12.144 78.592 12.144ZM89.5815 12.864V4.032C89.5815 3.344 90.1255 2.8 90.8135 2.8H94.1575C96.8295 2.8 98.4455 4.384 98.4455 6.672V6.704C98.4455 9.296 96.4295 10.64 93.9175 10.64H92.0455V12.864C92.0455 13.552 91.5015 14.096 90.8135 14.096C90.1255 14.096 89.5815 13.552 89.5815 12.864ZM92.0455 8.448H93.9975C95.2295 8.448 95.9495 7.712 95.9495 6.752V6.72C95.9495 5.616 95.1815 5.024 93.9495 5.024H92.0455V8.448ZM99.163 12.88V3.44C99.163 2.768 99.707 2.224 100.379 2.224C101.051 2.224 101.595 2.768 101.595 3.44V6.64C102.155 5.92 102.875 5.264 104.107 5.264C105.947 5.264 107.019 6.48 107.019 8.448V12.88C107.019 13.552 106.475 14.096 105.803 14.096C105.131 14.096 104.587 13.552 104.587 12.88V9.216C104.587 8.064 104.043 7.472 103.115 7.472C102.187 7.472 101.595 8.064 101.595 9.216V12.88C101.595 13.552 101.051 14.096 100.379 14.096C99.707 14.096 99.163 13.552 99.163 12.88ZM110.714 14.16C109.098 14.16 107.77 13.232 107.77 11.536V11.504C107.77 9.632 109.194 8.768 111.226 8.768C112.09 8.768 112.714 8.912 113.322 9.12V8.976C113.322 7.968 112.698 7.408 111.482 7.408C110.81 7.408 110.266 7.504 109.802 7.648C109.658 7.696 109.562 7.712 109.45 7.712C108.89 7.712 108.442 7.28 108.442 6.72C108.442 6.288 108.714 5.92 109.098 5.776C109.866 5.488 110.698 5.328 111.834 5.328C113.162 5.328 114.122 5.68 114.73 6.288C115.37 6.928 115.658 7.872 115.658 9.024V12.928C115.658 13.584 115.13 14.096 114.474 14.096C113.77 14.096 113.306 13.6 113.306 13.088V13.072C112.714 13.728 111.898 14.16 110.714 14.16ZM111.45 12.48C112.586 12.48 113.354 11.856 113.354 10.976V10.544C112.938 10.352 112.394 10.224 111.802 10.224C110.762 10.224 110.122 10.64 110.122 11.408V11.44C110.122 12.096 110.666 12.48 111.45 12.48ZM116.901 12.88V6.544C116.901 5.872 117.445 5.328 118.117 5.328C118.789 5.328 119.333 5.872 119.333 6.544V6.928C119.685 6.096 120.261 5.328 120.981 5.328C121.733 5.328 122.165 5.824 122.165 6.512C122.165 7.152 121.749 7.536 121.253 7.648C120.021 7.936 119.333 8.88 119.333 10.608V12.88C119.333 13.552 118.789 14.096 118.117 14.096C117.445 14.096 116.901 13.552 116.901 12.88ZM122.738 12.88V6.544C122.738 5.872 123.282 5.328 123.954 5.328C124.626 5.328 125.17 5.872 125.17 6.544V6.64C125.73 5.92 126.466 5.264 127.698 5.264C128.818 5.264 129.666 5.76 130.114 6.624C130.866 5.744 131.762 5.264 132.93 5.264C134.738 5.264 135.826 6.352 135.826 8.416V12.88C135.826 13.552 135.282 14.096 134.61 14.096C133.938 14.096 133.394 13.552 133.394 12.88V9.216C133.394 8.064 132.882 7.472 131.97 7.472C131.058 7.472 130.498 8.064 130.498 9.216V12.88C130.498 13.552 129.954 14.096 129.282 14.096C128.61 14.096 128.066 13.552 128.066 12.88V9.216C128.066 8.064 127.554 7.472 126.642 7.472C125.73 7.472 125.17 8.064 125.17 9.216V12.88C125.17 13.552 124.626 14.096 123.954 14.096C123.282 14.096 122.738 13.552 122.738 12.88ZM139.523 14.16C137.907 14.16 136.579 13.232 136.579 11.536V11.504C136.579 9.632 138.003 8.768 140.035 8.768C140.899 8.768 141.523 8.912 142.131 9.12V8.976C142.131 7.968 141.507 7.408 140.291 7.408C139.619 7.408 139.075 7.504 138.611 7.648C138.467 7.696 138.371 7.712 138.259 7.712C137.699 7.712 137.251 7.28 137.251 6.72C137.251 6.288 137.523 5.92 137.907 5.776C138.675 5.488 139.507 5.328 140.643 5.328C141.971 5.328 142.931 5.68 143.539 6.288C144.179 6.928 144.467 7.872 144.467 9.024V12.928C144.467 13.584 143.939 14.096 143.283 14.096C142.579 14.096 142.115 13.6 142.115 13.088V13.072C141.523 13.728 140.707 14.16 139.523 14.16ZM140.259 12.48C141.395 12.48 142.163 11.856 142.163 10.976V10.544C141.747 10.352 141.203 10.224 140.611 10.224C139.571 10.224 138.931 10.64 138.931 11.408V11.44C138.931 12.096 139.475 12.48 140.259 12.48ZM149.758 14.192C147.182 14.192 145.294 12.208 145.294 9.76V9.728C145.294 7.28 147.166 5.264 149.79 5.264C151.086 5.264 151.998 5.616 152.718 6.224C152.878 6.352 153.102 6.64 153.102 7.056C153.102 7.664 152.606 8.144 151.998 8.144C151.678 8.144 151.438 8.016 151.294 7.904C150.862 7.568 150.414 7.36 149.774 7.36C148.558 7.36 147.694 8.432 147.694 9.696V9.728C147.694 11.04 148.542 12.096 149.87 12.096C150.51 12.096 151.006 11.872 151.47 11.504C151.598 11.408 151.838 11.28 152.126 11.28C152.702 11.28 153.15 11.744 153.15 12.32C153.15 12.64 153.006 12.896 152.798 13.088C152.078 13.744 151.166 14.192 149.758 14.192ZM153.969 3.408V3.376C153.969 2.672 154.561 2.24 155.329 2.24C156.097 2.24 156.689 2.672 156.689 3.376V3.408C156.689 4.112 156.097 4.56 155.329 4.56C154.561 4.56 153.969 4.112 153.969 3.408ZM154.113 12.88V6.544C154.113 5.872 154.657 5.328 155.329 5.328C156.001 5.328 156.545 5.872 156.545 6.544V12.88C156.545 13.552 156.001 14.096 155.329 14.096C154.657 14.096 154.113 13.552 154.113 12.88ZM159.947 9.04H163.611C163.467 7.952 162.827 7.216 161.803 7.216C160.795 7.216 160.139 7.936 159.947 9.04ZM165.019 13.152C164.267 13.792 163.291 14.192 162.043 14.192C159.467 14.192 157.563 12.384 157.563 9.76V9.728C157.563 7.28 159.307 5.264 161.803 5.264C164.667 5.264 165.931 7.616 165.931 9.392C165.931 10.096 165.435 10.56 164.795 10.56H159.979C160.219 11.664 160.987 12.24 162.075 12.24C162.747 12.24 163.307 12.032 163.803 11.664C163.979 11.536 164.139 11.472 164.395 11.472C164.939 11.472 165.339 11.888 165.339 12.432C165.339 12.752 165.195 12.992 165.019 13.152ZM169.949 14.16C168.893 14.16 167.757 13.856 166.717 13.184C166.461 13.024 166.253 12.736 166.253 12.352C166.253 11.808 166.669 11.392 167.213 11.392C167.389 11.392 167.565 11.44 167.693 11.52C168.509 12.032 169.325 12.288 170.013 12.288C170.717 12.288 171.037 12.032 171.037 11.648V11.616C171.037 11.088 170.205 10.912 169.261 10.624C168.061 10.272 166.701 9.712 166.701 8.048V8.016C166.701 6.272 168.109 5.296 169.837 5.296C170.733 5.296 171.661 5.536 172.493 5.952C172.845 6.128 173.069 6.448 173.069 6.864C173.069 7.408 172.637 7.824 172.093 7.824C171.917 7.824 171.805 7.792 171.645 7.712C170.957 7.376 170.301 7.168 169.789 7.168C169.197 7.168 168.893 7.424 168.893 7.76V7.792C168.893 8.272 169.709 8.496 170.637 8.816C171.837 9.216 173.229 9.792 173.229 11.36V11.392C173.229 13.296 171.805 14.16 169.949 14.16Z" fill="#75428E"/>
<path d="M56.912 29.34V21.9C56.912 21.492 57.224 21.18 57.632 21.18C58.04 21.18 58.364 21.492 58.364 21.9V24.72C58.832 24.06 59.492 23.532 60.524 23.532C62.012 23.532 63.464 24.708 63.464 26.82V26.844C63.464 28.944 62.024 30.132 60.524 30.132C59.468 30.132 58.808 29.604 58.364 29.016V29.34C58.364 29.736 58.04 30.06 57.632 30.06C57.236 30.06 56.912 29.736 56.912 29.34ZM60.176 28.872C61.172 28.872 61.988 28.092 61.988 26.844V26.82C61.988 25.596 61.16 24.792 60.176 24.792C59.192 24.792 58.328 25.608 58.328 26.82V26.844C58.328 28.056 59.192 28.872 60.176 28.872ZM65.089 31.956C64.681 31.956 64.381 31.896 64.081 31.776C63.865 31.704 63.625 31.524 63.625 31.176C63.625 30.816 63.901 30.576 64.213 30.576C64.333 30.576 64.405 30.6 64.477 30.624C64.645 30.672 64.777 30.708 64.981 30.708C65.413 30.708 65.641 30.528 65.881 30.036L65.929 29.904L63.577 24.648C63.529 24.54 63.493 24.396 63.493 24.3C63.493 23.892 63.805 23.592 64.213 23.592C64.585 23.592 64.789 23.808 64.921 24.144L66.625 28.356L68.209 24.144C68.329 23.844 68.533 23.592 68.905 23.592C69.289 23.592 69.601 23.892 69.601 24.276C69.601 24.396 69.565 24.552 69.541 24.624L67.225 30.18C66.685 31.476 66.109 31.956 65.089 31.956ZM73.9696 26.388H77.2216C77.1256 25.452 76.5736 24.72 75.6136 24.72C74.7256 24.72 74.1016 25.404 73.9696 26.388ZM78.0616 29.304C77.4856 29.82 76.7656 30.144 75.7816 30.144C73.9456 30.144 72.5296 28.812 72.5296 26.856V26.832C72.5296 25.02 73.8136 23.532 75.6256 23.532C77.6416 23.532 78.6376 25.188 78.6376 26.652C78.6376 27.06 78.3256 27.348 77.9536 27.348H73.9816C74.1376 28.38 74.8696 28.956 75.8056 28.956C76.4176 28.956 76.8976 28.74 77.3056 28.404C77.4136 28.32 77.5096 28.272 77.6776 28.272C78.0016 28.272 78.2536 28.524 78.2536 28.86C78.2536 29.04 78.1696 29.196 78.0616 29.304ZM79.3538 29.34V21.9C79.3538 21.504 79.6658 21.18 80.0738 21.18C80.4818 21.18 80.8058 21.504 80.8058 21.9V29.34C80.8058 29.748 80.4818 30.06 80.0738 30.06C79.6778 30.06 79.3538 29.748 79.3538 29.34ZM86.0054 30.144C83.3774 30.144 81.6494 28.272 81.6494 25.824V25.8C81.6494 23.448 83.4494 21.456 85.9814 21.456C87.2414 21.456 88.0814 21.756 88.8494 22.308C88.9934 22.416 89.1494 22.62 89.1494 22.908C89.1494 23.304 88.8254 23.64 88.4174 23.64C88.2254 23.64 88.0814 23.556 87.9614 23.472C87.4214 23.076 86.8334 22.812 85.9214 22.812C84.3734 22.812 83.1974 24.168 83.1974 25.776V25.8C83.1974 27.528 84.3374 28.8 86.0534 28.8C86.8454 28.8 87.5654 28.548 88.0814 28.164V26.592H86.4254C86.0654 26.592 85.7654 26.316 85.7654 25.956C85.7654 25.596 86.0654 25.308 86.4254 25.308H88.7654C89.1854 25.308 89.5094 25.632 89.5094 26.052V28.296C89.5094 28.716 89.3414 29.016 88.9934 29.232C88.2734 29.712 87.2654 30.144 86.0054 30.144ZM90.4136 29.34V24.324C90.4136 23.916 90.7256 23.592 91.1336 23.592C91.5416 23.592 91.8656 23.916 91.8656 24.324V24.972C92.2016 24.18 92.8256 23.58 93.4616 23.58C93.9176 23.58 94.1816 23.88 94.1816 24.3C94.1816 24.684 93.9296 24.936 93.6056 24.996C92.5736 25.176 91.8656 25.968 91.8656 27.468V29.34C91.8656 29.736 91.5416 30.06 91.1336 30.06C90.7376 30.06 90.4136 29.748 90.4136 29.34ZM97.3217 30.144C95.3897 30.144 93.9617 28.668 93.9617 26.868V26.844C93.9617 25.032 95.4017 23.532 97.3457 23.532C99.2897 23.532 100.718 25.008 100.718 26.82V26.844C100.718 28.644 99.2777 30.144 97.3217 30.144ZM97.3457 28.872C98.5217 28.872 99.2657 27.96 99.2657 26.868V26.844C99.2657 25.728 98.4617 24.804 97.3217 24.804C96.1577 24.804 95.4137 25.716 95.4137 26.82V26.844C95.4137 27.948 96.2177 28.872 97.3457 28.872ZM104.274 30.144C102.39 30.144 100.998 28.668 100.998 26.868V26.844C100.998 25.044 102.39 23.532 104.298 23.532C105.294 23.532 105.978 23.856 106.518 24.324C106.614 24.408 106.746 24.588 106.746 24.828C106.746 25.2 106.446 25.488 106.074 25.488C105.894 25.488 105.738 25.416 105.642 25.344C105.27 25.032 104.862 24.804 104.286 24.804C103.23 24.804 102.45 25.716 102.45 26.82V26.844C102.45 27.972 103.23 28.872 104.346 28.872C104.922 28.872 105.366 28.644 105.762 28.308C105.846 28.236 105.99 28.152 106.158 28.152C106.506 28.152 106.782 28.44 106.782 28.788C106.782 28.98 106.71 29.136 106.578 29.244C106.014 29.784 105.33 30.144 104.274 30.144ZM108.268 26.388H111.52C111.424 25.452 110.872 24.72 109.912 24.72C109.024 24.72 108.4 25.404 108.268 26.388ZM112.36 29.304C111.784 29.82 111.064 30.144 110.08 30.144C108.244 30.144 106.828 28.812 106.828 26.856V26.832C106.828 25.02 108.112 23.532 109.924 23.532C111.94 23.532 112.936 25.188 112.936 26.652C112.936 27.06 112.624 27.348 112.252 27.348H108.28C108.436 28.38 109.168 28.956 110.104 28.956C110.716 28.956 111.196 28.74 111.604 28.404C111.712 28.32 111.808 28.272 111.976 28.272C112.3 28.272 112.552 28.524 112.552 28.86C112.552 29.04 112.468 29.196 112.36 29.304ZM113.568 29.34V24.324C113.568 23.916 113.88 23.592 114.288 23.592C114.696 23.592 115.02 23.916 115.02 24.324V24.972C115.356 24.18 115.98 23.58 116.616 23.58C117.072 23.58 117.336 23.88 117.336 24.3C117.336 24.684 117.084 24.936 116.76 24.996C115.728 25.176 115.02 25.968 115.02 27.468V29.34C115.02 29.736 114.696 30.06 114.288 30.06C113.892 30.06 113.568 29.748 113.568 29.34Z" fill="#75428E"/>
</svg>
