<svg width="44" height="44" viewBox="0 0 44 44" fill="none" xmlns="http://www.w3.org/2000/svg">
<rect width="44" height="44" rx="22" fill="white"/>
<path fill-rule="evenodd" clip-rule="evenodd" d="M31.7082 15.1102L31.7113 15.0921L31.6931 15.0826C30.4722 14.5348 29.1179 14.355 27.7963 14.5653C26.4747 14.7755 25.2431 15.3667 24.2525 16.2664L24.213 16.3029L24.2037 16.2513C23.993 15.3038 23.5541 14.422 22.9251 13.6827C22.2961 12.9434 21.4961 12.3689 20.5945 12.0091L20.5701 12L20.5581 12.0216C20.1609 12.7591 19.9242 13.5722 19.8633 14.4076C19.8024 15.243 19.9188 16.0819 20.2049 16.8692C20.4904 17.6567 20.94 18.3745 21.5238 18.9753C22.1077 19.576 22.8124 20.0458 23.5915 20.3537C24.4701 20.7033 25.4197 20.8377 26.3608 20.7457C27.302 20.6537 28.2075 20.3379 29.0019 19.8248C29.7962 19.3117 30.4563 18.616 30.9271 17.7959C31.3979 16.9758 31.6657 16.0549 31.7082 15.1102ZM30.8482 23.9629C30.8544 23.9073 30.8575 23.8514 30.8575 23.7956C30.8601 23.4175 30.7285 23.0508 30.4862 22.7607C30.3507 22.5913 30.1826 22.4508 29.9919 22.3473C29.8012 22.2439 29.5917 22.1796 29.3758 22.1584C29.3212 22.1522 29.2663 22.1491 29.2113 22.1491C28.8326 22.1477 28.4654 22.2791 28.1736 22.5204C28.0044 22.6572 27.8639 22.826 27.76 23.0171C27.6561 23.2082 27.5909 23.4179 27.5681 23.6343C27.2792 26.5283 24.8615 28.7103 21.9472 28.7103C18.8309 28.7103 16.2929 26.1723 16.2929 23.056C16.2897 21.5837 16.8657 20.1692 17.8966 19.118C18.1992 18.804 18.3654 18.3832 18.3592 17.9472C18.353 17.5112 18.1748 17.0953 17.8634 16.7901C17.5495 16.4861 17.1282 16.3187 16.6914 16.3244C16.2545 16.3301 15.8377 16.5085 15.532 16.8205C13.9008 18.5034 13 20.7189 13 23.056C13 27.9861 17.0139 32 21.947 32C26.5606 32 30.3858 28.543 30.8482 23.9629Z" fill="#333333"/>
</svg>
