<svg width="12" height="13" viewBox="0 0 12 13" fill="none" xmlns="http://www.w3.org/2000/svg">
    <path fill-rule="evenodd" clip-rule="evenodd" d="M9.5 4c0-.55-.45-1-1-1H7v1h1.5v1.325L6.76 7.5H5V5H3a2 2 0 0 0-2 2v1.5h1c0 .83.67 1.5 1.5 1.5S5 9.33 5 8.5h2.24L9.5 5.675V4zM2 7.5V7c0-.55.45-1 1-1h1v1.5H2zM3.5 9a.501.501 0 0 1-.5-.5h1c0 .275-.225.5-.5.5zM5 3.5H2.5v1H5v-1zm3 5C8 7.67 8.67 7 9.5 7s1.5.67 1.5 1.5-.67 1.5-1.5 1.5S8 9.33 8 8.5zm1 0c0 .275.225.5.5.5s.5-.225.5-.5-.225-.5-.5-.5-.5.225-.5.5z" fill="#fff"/>
</svg>
