<svg width="343" height="195" viewBox="0 0 343 195" fill="none" xmlns="http://www.w3.org/2000/svg">
<g clip-path="url(#clip0_17085_159720)">
<rect y="0.145386" width="343" height="194.855" rx="8" fill="#F5F5F5"/>
<path d="M344.7 -90.2042L342.387 -90.0436L343.624 -67.2872L308.369 -66.069L307.212 -90.1641L306.056 -90.0838L307.212 -65.9887L277.775 -64.9982L267.157 -67.9565L265.179 -90.6326L264.022 -90.6326L265.977 -68.2912L240.31 -75.4393L233.74 -74.7031C234.284 -77.9292 235.556 -83.9128 237.118 -90.7665L233.509 -90.7665C231.415 -81.5434 230.536 -76.8047 230.213 -74.3015L176.45 -68.2778L174.553 -91.0342L172.24 -91.0342L174.16 -67.9833L141.634 -64.3288L143.242 -91.1011L139.772 -91.1011L138.141 -63.847L124.597 -62.3343L105.639 -68.425L111.873 -91.1814L105.812 -91.1814L97.3455 -60.139L83.743 -60.7681L90.5558 -91.2618L86.9817 -91.2618L83.662 -76.4433L71.0196 -78.9064C72.1763 -83.3506 73.09 -87.4869 73.7493 -91.3287L72.5926 -91.3287C71.9449 -87.5627 71.0504 -83.4978 69.9092 -79.1339L57.3014 -81.5836L57.9607 -91.3956L55.6474 -91.3956L54.8377 -79.3481L69.1226 -76.8048C66.8093 -69.6566 59.1405 -53.8475 37.4066 -54.6105L24.6832 -91.8106L23.2143 -91.8106L22.3352 -91.409L34.9082 -54.6239L-19.7677 -54.6239L-19.7677 -53.2853L35.3825 -53.2853L40.68 -37.7841L0.265855 -14.4922C0.954285 -13.3868 1.4026 -12.1058 1.57289 -10.7575L41.9639 -34.036L54.0859 1.75856L56.9197 0.955395L57.9145 29.0663L1.4341 30.0435L1.4341 31.3821L58.007 30.3112L59.742 79.6124C51.0207 79.6927 42.8661 79.7998 38.3436 79.8533L37.8924 79.8533L-20.3345 82.8786L-20.3345 84.2172L37.7189 81.192L31.4382 131.832L-20.4849 119.784L-20.4849 123.238C-20.4849 123.452 -20.4849 123.666 -20.4849 123.88L30.9524 135.888L23.0941 179.288L23.8459 179.422L24.2507 179.422L32.0975 136.129L87.1783 148.926L85.7672 184.133L91.5505 184.133L94.3497 127.294L122.92 127.294L133.572 184.133L137.135 184.133L125.684 123.265L94.5695 123.265L100.573 29.5616L133.665 29.5616L133.665 59.5465L149.072 63.5088L149.072 87.9118L163.095 184.133L166.646 184.133L152.542 87.6039L152.542 13.3376L180.626 10.6603L187.103 87.8582L189.417 87.6039L182.997 10.3926L236.817 5.27912L228.015 83.2802L231.485 83.8022L240.391 4.94446L272.084 1.93257L279.29 84.4849L281.904 127.321L233.37 127.321L212.92 86.7472L209.913 88.7685L229.9 128.378L218.112 186.136L221.582 186.136L233.37 128.632L264.242 128.632L267.712 187.608L271.182 187.608L267.712 128.606L283.107 128.606L326.749 127.147L337.922 163.278L341.646 163.278L330.427 126.999L354.208 126.21L355.7 153.665L356.475 153.665L358.013 153.557L356.521 126.129L363.461 125.902L363.461 124.563L356.429 124.791L350.645 18.4377C355.156 18.6385 359.54 18.8392 363.484 19.0133L363.484 16.3361C359.76 16.162 355.272 15.9613 350.495 15.7471L349.246 -7.21018L363.484 -10.4898L363.484 -11.8284L349.165 -8.5354L346.319 -60.7414L363.484 -61.3437L363.484 -68.0368L344.7 -90.2042ZM348.17 15.6266C346.123 15.5463 344.029 15.4526 341.924 15.3589L341.924 -5.55028L346.909 -6.70149L348.17 15.6266ZM346.875 -8.0401L341.323 -6.70149L315.876 -3.58252L297.369 -1.82893L293.656 -58.8539L343.983 -60.6075L346.875 -8.0401ZM271.251 -21.0113L268.637 -51.023L278.816 -50.1797L281.326 -23.2869L271.251 -21.0113ZM271.367 -19.6727L293.587 -24.6925L295.079 -1.65491L273.102 0.433337L271.367 -19.6727ZM291.366 -58.8272L293.517 -25.9909L283.628 -23.7554L280.933 -52.6427L268.429 -53.6601L267.793 -60.902L277.173 -58.3051L291.366 -58.8272ZM211.44 -20.0073L234.134 -25.857L236.84 3.94049L214.25 6.0823L211.44 -20.0073ZM234.018 -27.2091L211.301 -21.3326L206.674 -65.0249L230.398 -67.7022L234.018 -27.2091ZM137.656 -57.2877L133.723 8.62565L102.296 2.34754L102.597 -2.25728L102.597 -57.7964L103.823 -62.187L123.995 -55.6948L137.656 -57.2877ZM37.8115 -53.2719C43.7683 -53.2049 63.478 -54.7176 70.1983 -76.5905L83.0027 -74.0739L79.9722 -60.4736L42.6926 -38.9755L37.8115 -53.2719ZM43.965 -35.2541L81.846 -57.0602L96.8828 -56.3641L96.8828 -13.0331L55.6011 -1.40058L43.965 -35.2541ZM58.1111 0.593975L96.8828 -10.2756L96.8828 -2.56516L94.9049 28.3033L59.1752 28.986L58.1111 0.593975ZM59.1637 30.2844L94.7545 29.6151L91.5505 79.6659C85.7672 79.4518 72.9397 79.4919 60.8987 79.6659L59.1637 30.2844ZM32.5602 132.14L38.8872 81.192C57.1626 80.9376 83.0606 80.71 91.5043 80.9644L87.4096 144.883L32.5602 132.14ZM102.25 3.71295L149.107 13.0832L149.107 28.2497L100.642 28.2497L102.25 3.71295ZM137.135 56.3473L137.135 29.575L149.072 29.575L149.072 59.3993L137.135 56.3473ZM150.83 12.1061L137.158 9.42883L141.16 -57.5689L174.646 -61.317L180.51 9.33512L150.83 12.1061ZM176.948 -61.6249L203.193 -64.5698L210.757 6.37679L182.824 9.05402L176.948 -61.6249ZM240.31 3.60584L233.879 -67.9967L239.894 -68.6793L266.625 -61.2366L271.968 0.593966L240.31 3.60584ZM316.072 -2.25729L340.872 -5.29594L340.872 15.3187C332.682 14.9573 324.505 14.6092 318.363 14.3549C307.351 13.9132 307.351 13.9132 306.981 14.7565L308.068 15.399L308.068 16.7376C309.028 16.7376 324.146 17.3132 340.305 18.0763L315.575 77.8052L280.03 79.9202L273.229 1.86563L316.072 -2.25729ZM280.528 85.1007L326.17 85.5157L327.813 125.781L283.107 127.28L280.528 85.1007ZM330.045 125.714L328.992 125.714L327.292 84.1503L280.458 83.7085L280.227 81.1652L316.408 79.01L341.646 18.0361C343.89 18.1298 346.146 18.2369 348.39 18.3306L354.173 124.871L330.045 125.714Z" fill="white"/>
<path d="M330.672 -60.5966L314.359 -59.7934L316.689 -3.3976C316.752 -1.91938 316.479 -0.447894 315.897 0.872587L280.834 80.8548C280.433 81.7659 279.829 82.5391 279.084 83.0962C278.339 83.6533 277.48 83.9745 276.592 84.0273L92.7936 94.9102C92.3621 94.9334 91.9313 94.8511 91.5295 94.6688C91.1278 94.4865 90.7643 94.2084 90.4631 93.8527C90.1658 93.4994 89.9356 93.079 89.7871 92.6182C89.6387 92.1573 89.5752 91.666 89.6008 91.1755L91.8148 56.907L59.1871 56.907L59.1871 52.8911L92.2576 52.8911C92.6816 52.8887 93.1015 52.9874 93.4906 53.1809C93.8797 53.3745 94.2296 53.6587 94.5182 54.0156C94.8066 54.3738 95.0278 54.7963 95.1681 55.2569C95.3085 55.7174 95.3649 56.2062 95.3339 56.6928L93.1199 90.948L276.452 80.0784C276.724 80.0623 276.988 79.9649 277.216 79.7959C277.445 79.6268 277.632 79.392 277.757 79.1146L312.914 -0.880999C313.226 -1.57427 313.37 -2.35069 313.333 -3.12986L310.933 -59.9942C310.91 -60.4627 310.969 -60.9317 311.107 -61.3733C311.245 -61.8148 311.459 -62.2199 311.737 -62.5643C312.01 -62.9093 312.341 -63.1887 312.709 -63.3863C313.077 -63.5839 313.475 -63.6958 313.881 -63.7156L330.579 -64.5321L330.672 -60.5966Z" fill="white"/>
<path d="M-51.0553 86.1057L-27.3761 86.6428L-30.7588 124.354C-30.8495 125.342 -30.4531 126.326 -29.6087 127.209L21.2846 180.691C21.8668 181.301 22.7428 181.818 23.8239 182.19C24.905 182.563 26.1528 182.778 27.4412 182.813L294.221 190.09C294.847 190.106 295.473 190.05 296.056 189.929C296.639 189.807 297.166 189.621 297.604 189.383C298.035 189.147 298.369 188.866 298.585 188.557C298.8 188.249 298.892 187.921 298.855 187.593L295.642 164.678L343 164.678L343 161.993L294.999 161.993C294.383 161.991 293.774 162.057 293.209 162.186C292.644 162.316 292.137 162.506 291.718 162.745C291.299 162.984 290.978 163.267 290.774 163.575C290.571 163.883 290.489 164.209 290.534 164.535L293.747 187.441L27.6441 180.172C27.2496 180.162 26.8673 180.096 26.535 179.983C26.2027 179.87 25.9321 179.713 25.7498 179.528L-25.2788 126.036C-25.7314 125.573 -25.9417 125.054 -25.8878 124.533L-22.4035 86.5085C-22.37 86.1953 -22.456 85.8816 -22.6566 85.5864C-22.8571 85.2911 -23.1679 85.0202 -23.5705 84.7899C-23.9676 84.5592 -24.447 84.3724 -24.9811 84.2403C-25.5153 84.1082 -26.0936 84.0334 -26.6826 84.0201L-50.92 83.4741L-51.0553 86.1057Z" fill="white"/>
<path d="M50.3911 35.5175L5.14783 36.4802L5.14783 74.985L52.3162 74.985L50.3911 35.5175Z" fill="#EBEBEB"/>
<path d="M59.7142 59.2513C61.9234 59.2513 63.7142 57.4604 63.7142 55.2513C63.7142 53.0421 61.9234 51.2513 59.7142 51.2513C57.5051 51.2513 55.7142 53.0421 55.7142 55.2513C55.7142 57.4604 57.5051 59.2513 59.7142 59.2513Z" fill="#05BC66"/>
<path d="M265.931 132.519C268.14 132.519 269.931 130.728 269.931 128.519C269.931 126.31 268.14 124.519 265.931 124.519C263.722 124.519 261.931 126.31 261.931 128.519C261.931 130.728 263.722 132.519 265.931 132.519Z" fill="#05BC66"/>
<path d="M59.7142 55.489H94.8387C94.8387 68.046 92.7131 92.7829 92.7131 92.7829L210.15 86.0395L232.116 128.779L265.931 128.234" stroke="#05BC66" stroke-width="2" stroke-linecap="round" stroke-linejoin="round"/>
<path d="M208.887 95.5953L159.878 97.6808L173.225 177.971L214.1 177.971L223.276 127.92L208.887 95.5953Z" fill="#EBEBEB"/>
<path d="M235.804 77.966C237.236 77.6706 275.023 75.4627 275.023 75.4627L269.349 7.03845L242.647 8.70734L235.804 77.966Z" fill="#EBEBEB"/>
<path d="M274.872 180.698C276.198 180.425 289.873 180.698 289.873 180.698L286.073 157.697L328.876 157.697L319.875 131.695L272.872 133.695L274.872 180.698Z" fill="#EBEBEB"/>
</g>
<defs>
<clipPath id="clip0_17085_159720">
<rect width="195" height="343" fill="white" transform="translate(0 195) rotate(-90)"/>
</clipPath>
</defs>
</svg>
