<svg width="33" height="33" viewBox="0 0 33 33" fill="none" xmlns="http://www.w3.org/2000/svg">
<path d="M24.5003 17.8333H17.8337V24.5C17.8337 25.2333 17.2337 25.8333 16.5003 25.8333C15.767 25.8333 15.167 25.2333 15.167 24.5V17.8333H8.50033C7.76699 17.8333 7.16699 17.2333 7.16699 16.5C7.16699 15.7666 7.76699 15.1666 8.50033 15.1666H15.167V8.49996C15.167 7.76663 15.767 7.16663 16.5003 7.16663C17.2337 7.16663 17.8337 7.76663 17.8337 8.49996V15.1666H24.5003C25.2337 15.1666 25.8337 15.7666 25.8337 16.5C25.8337 17.2333 25.2337 17.8333 24.5003 17.8333Z" fill="white"/>
</svg>
