<svg width="20" height="20" viewBox="0 0 20 20" fill="none" xmlns="http://www.w3.org/2000/svg">
<path d="M18.25 11.375H11.375V18.25C11.375 19.0063 10.7563 19.625 10 19.625C9.24375 19.625 8.625 19.0063 8.625 18.25V11.375H1.75C0.99375 11.375 0.375 10.7563 0.375 10C0.375 9.24375 0.99375 8.625 1.75 8.625H8.625V1.75C8.625 0.99375 9.24375 0.375 10 0.375C10.7563 0.375 11.375 0.99375 11.375 1.75V8.625H18.25C19.0063 8.625 19.625 9.24375 19.625 10C19.625 10.7563 19.0063 11.375 18.25 11.375Z" fill="white"/>
</svg>
