<svg width="96" height="96" viewBox="0 0 96 96" fill="none" xmlns="http://www.w3.org/2000/svg">
<g filter="url(#filter0_d_1344_3137)">
<rect x="20" y="16" width="56" height="56" rx="28" fill="#05BC66" shape-rendering="crispEdges"/>
<path d="M52.5446 44.9959C53.2943 44.9959 53.9541 44.5861 54.2939 43.9663L57.8726 37.4787C58.2425 36.819 57.7627 35.9993 57.0029 35.9993H42.2084L41.2688 34H38V35.9993H39.9993L43.5979 43.5864L42.2484 46.0255C41.5187 47.365 42.4783 48.9944 43.9978 48.9944H55.9933V46.9952H43.9978L45.0974 44.9959H52.5446ZM43.1581 37.9985H55.3036L52.5446 42.9967H45.5272L43.1581 37.9985ZM43.9978 49.9941C42.8982 49.9941 42.0085 50.8937 42.0085 51.9933C42.0085 53.0929 42.8982 53.9926 43.9978 53.9926C45.0974 53.9926 45.997 53.0929 45.997 51.9933C45.997 50.8937 45.0974 49.9941 43.9978 49.9941ZM53.9941 49.9941C52.8945 49.9941 52.0048 50.8937 52.0048 51.9933C52.0048 53.0929 52.8945 53.9926 53.9941 53.9926C55.0937 53.9926 55.9933 53.0929 55.9933 51.9933C55.9933 50.8937 55.0937 49.9941 53.9941 49.9941Z" fill="white"/>
<circle cx="59" cy="33" r="6" fill="#E83737"/>
</g>
<defs>
<filter id="filter0_d_1344_3137" x="0" y="0" width="96" height="96" filterUnits="userSpaceOnUse" color-interpolation-filters="sRGB">
<feFlood flood-opacity="0" result="BackgroundImageFix"/>
<feColorMatrix in="SourceAlpha" type="matrix" values="0 0 0 0 0 0 0 0 0 0 0 0 0 0 0 0 0 0 127 0" result="hardAlpha"/>
<feOffset dy="4"/>
<feGaussianBlur stdDeviation="10"/>
<feComposite in2="hardAlpha" operator="out"/>
<feColorMatrix type="matrix" values="0 0 0 0 0.0196078 0 0 0 0 0.737255 0 0 0 0 0.4 0 0 0 0.4 0"/>
<feBlend mode="normal" in2="BackgroundImageFix" result="effect1_dropShadow_1344_3137"/>
<feBlend mode="normal" in="SourceGraphic" in2="effect1_dropShadow_1344_3137" result="shape"/>
</filter>
</defs>
</svg>
