<svg width="12" height="12" viewBox="0 0 12 12" fill="none" xmlns="http://www.w3.org/2000/svg">
<path d="M5.33274 11.5209C5.14385 11.5209 4.98551 11.457 4.85774 11.3292C4.72996 11.2015 4.66607 11.0431 4.66607 10.8542V6.85425L0.799403 1.92091C0.632736 1.69869 0.607736 1.46536 0.724403 1.22091C0.841069 0.97647 1.04385 0.854248 1.33274 0.854248H10.6661C10.955 0.854248 11.1577 0.97647 11.2744 1.22091C11.3911 1.46536 11.3661 1.69869 11.1994 1.92091L7.33274 6.85425V10.8542C7.33274 11.0431 7.26885 11.2015 7.14107 11.3292C7.01329 11.457 6.85496 11.5209 6.66607 11.5209H5.33274ZM5.9994 6.38758L9.2994 2.18758H2.6994L5.9994 6.38758Z" fill="black"/>
</svg>
