<svg width="80" height="80" viewBox="0 0 80 80" fill="none" xmlns="http://www.w3.org/2000/svg">
<g filter="url(#filter0_d_1530_2559)">
<rect x="12" y="9" width="56" height="56" rx="28" fill="#75428E" shape-rendering="crispEdges"/>
<path d="M44.5446 37.9959C45.2943 37.9959 45.9541 37.5861 46.2939 36.9663L49.8726 30.4787C50.2425 29.819 49.7627 28.9993 49.0029 28.9993H34.2084L33.2688 27H30V28.9993H31.9993L35.5979 36.5864L34.2484 39.0255C33.5187 40.365 34.4783 41.9944 35.9978 41.9944H47.9933V39.9952H35.9978L37.0974 37.9959H44.5446ZM35.1581 30.9985H47.3036L44.5446 35.9967H37.5272L35.1581 30.9985ZM35.9978 42.9941C34.8982 42.9941 34.0085 43.8937 34.0085 44.9933C34.0085 46.0929 34.8982 46.9926 35.9978 46.9926C37.0974 46.9926 37.997 46.0929 37.997 44.9933C37.997 43.8937 37.0974 42.9941 35.9978 42.9941ZM45.9941 42.9941C44.8945 42.9941 44.0048 43.8937 44.0048 44.9933C44.0048 46.0929 44.8945 46.9926 45.9941 46.9926C47.0937 46.9926 47.9933 46.0929 47.9933 44.9933C47.9933 43.8937 47.0937 42.9941 45.9941 42.9941Z" fill="white"/>
</g>
<defs>
<filter id="filter0_d_1530_2559" x="0.7" y="0.7" width="78.6" height="78.6" filterUnits="userSpaceOnUse" color-interpolation-filters="sRGB">
<feFlood flood-opacity="0" result="BackgroundImageFix"/>
<feColorMatrix in="SourceAlpha" type="matrix" values="0 0 0 0 0 0 0 0 0 0 0 0 0 0 0 0 0 0 127 0" result="hardAlpha"/>
<feOffset dy="3"/>
<feGaussianBlur stdDeviation="5.65"/>
<feComposite in2="hardAlpha" operator="out"/>
<feColorMatrix type="matrix" values="0 0 0 0 0.373009 0 0 0 0 0.136111 0 0 0 0 0.466667 0 0 0 0.42 0"/>
<feBlend mode="normal" in2="BackgroundImageFix" result="effect1_dropShadow_1530_2559"/>
<feBlend mode="normal" in="SourceGraphic" in2="effect1_dropShadow_1530_2559" result="shape"/>
</filter>
</defs>
</svg>
