<svg width="160" height="160" viewBox="0 0 160 160" fill="none" xmlns="http://www.w3.org/2000/svg">
<rect width="160" height="160" rx="80" fill="#F5F5F5"/>
<path d="M97.5238 83.5397C100.439 83.5397 103.005 81.9459 104.327 79.5357L118.244 54.3061C119.682 51.7404 117.816 48.5527 114.862 48.5527H57.3276L53.6734 40.7778H40.9614V48.5527H48.7363L62.7311 78.0584L57.4831 87.5438C54.6452 92.753 58.3772 99.0895 64.2861 99.0895H110.935V91.3146H64.2861L68.5623 83.5397H97.5238ZM61.0206 56.3276H108.253L97.5238 75.7648H70.2339L61.0206 56.3276ZM64.2861 102.977C60.0099 102.977 56.5501 106.476 56.5501 110.752C56.5501 115.028 60.0099 118.527 64.2861 118.527C68.5623 118.527 72.061 115.028 72.061 110.752C72.061 106.476 68.5623 102.977 64.2861 102.977ZM103.161 102.977C98.8844 102.977 95.4245 106.476 95.4245 110.752C95.4245 115.028 98.8844 118.527 103.161 118.527C107.437 118.527 110.935 115.028 110.935 110.752C110.935 106.476 107.437 102.977 103.161 102.977Z" fill="#333333"/>
</svg>
