<svg width="44" height="44" viewBox="0 0 44 44" fill="none" xmlns="http://www.w3.org/2000/svg">
<rect width="44" height="44" rx="22" fill="white"/>
<path d="M20.3588 17.7C19.9688 18.09 19.9688 18.71 20.3588 19.1L22.2588 21H13.0588C12.5088 21 12.0588 21.45 12.0588 22C12.0588 22.55 12.5088 23 13.0588 23H22.2588L20.3588 24.9C19.9688 25.29 19.9688 25.91 20.3588 26.3C20.7488 26.69 21.3688 26.69 21.7588 26.3L25.3488 22.71C25.7388 22.32 25.7388 21.69 25.3488 21.3L21.7588 17.7C21.3688 17.31 20.7488 17.31 20.3588 17.7ZM30.0588 29H23.0588C22.5088 29 22.0588 29.45 22.0588 30C22.0588 30.55 22.5088 31 23.0588 31H30.0588C31.1588 31 32.0588 30.1 32.0588 29V15C32.0588 13.9 31.1588 13 30.0588 13H23.0588C22.5088 13 22.0588 13.45 22.0588 14C22.0588 14.55 22.5088 15 23.0588 15H30.0588V29Z" fill="#333333"/>
</svg>
