<svg width="160" height="160" viewBox="0 0 160 160" fill="none" xmlns="http://www.w3.org/2000/svg">
<rect x="-0.000152588" width="160" height="160" rx="80" fill="#F5F5F5"/>
<path d="M99.2945 36.9278L60.4057 36.8889C56.1279 36.8889 52.6279 40.3889 52.6279 44.6667V114.667C52.6279 118.944 56.1279 122.444 60.4057 122.444H99.2945C103.572 122.444 107.072 118.944 107.072 114.667V44.6667C107.072 40.3889 103.572 36.9278 99.2945 36.9278ZM99.2945 114.667H60.4057V110.778H99.2945V114.667ZM99.2945 103H60.4057V56.3333H99.2945V103ZM60.4057 48.5556V44.6667H99.2945V48.5556H60.4057ZM95.4057 79.6667L79.8501 95.2222L64.2945 79.6667L69.7779 74.1833L75.9612 80.3278V64.1111H83.739V80.3278L89.9223 74.1444L95.4057 79.6667Z" fill="#05BC66"/>
</svg>
