<svg width="78" height="32" viewBox="0 0 78 32" fill="none" xmlns="http://www.w3.org/2000/svg">
<g clip-path="url(#clip0_2850_24626)">
<path d="M39.1992 0.471787C38.6385 0.471787 38.1761 0.924511 38.1761 1.47338C38.1761 2.02238 38.6385 2.49431 39.1992 2.49431C39.7601 2.49431 40.2421 2.04172 40.2421 1.47338C40.2421 0.905172 39.7798 0.471787 39.1992 0.471787ZM47.7984 3.35148C46.9817 3.35148 46.234 3.67885 45.6928 4.2856C45.1517 4.8538 44.8566 5.6435 44.8566 6.49107C44.8566 6.50067 44.8566 6.51027 44.8566 6.53921C44.8861 7.01114 45.2699 7.38679 45.7421 7.38679H49.835C50.3073 7.38679 50.7008 7.02074 50.7303 6.52961C50.7303 6.52001 50.7303 6.51027 50.7303 6.49107C50.7303 5.6339 50.4352 4.8538 49.8941 4.2856C49.3529 3.68845 48.6052 3.35148 47.7885 3.35148H47.7984ZM46.4505 5.75911C46.7555 5.25839 47.2376 4.96942 47.7984 4.96942C48.3592 4.96942 48.8413 5.25839 49.1463 5.75911H46.4505ZM39.1992 3.66925C38.6385 3.66925 38.1761 4.12184 38.1761 4.69004V10.1989C38.1761 10.7479 38.6385 11.2005 39.1992 11.2005C39.7601 11.2005 40.2421 10.7479 40.2421 10.1989V4.69004C40.2421 4.14118 39.7699 3.66925 39.1992 3.66925ZM25.0904 6.48147C24.5788 6.25024 24.0771 6.11542 23.9295 6.08662C23.2211 5.88433 23.2211 5.68204 23.2211 5.56656C23.2211 5.49908 23.4572 5.26799 24.0378 5.26799C24.1951 5.26799 24.4116 5.31613 24.5493 5.4124C24.7067 5.50868 24.8838 5.55682 25.0609 5.55682C25.3856 5.55682 25.671 5.4028 25.8481 5.13317C25.9465 4.97902 25.9956 4.81526 25.9956 4.64191C25.9956 4.32414 25.8382 4.02556 25.543 3.85221C25.1102 3.58258 24.5493 3.42842 24.0279 3.42842C22.4831 3.42842 21.3321 4.34348 21.3321 5.56656C21.3321 6.963 22.4734 7.57934 23.4179 7.84897C23.4376 7.84897 23.4474 7.84898 23.4868 7.86831C24.0378 7.99353 24.7265 8.3209 24.8052 8.51346C24.8052 8.66761 24.7559 8.81203 24.6281 8.93724C24.4312 9.15874 24.0968 9.26476 23.6835 9.26476C23.3786 9.26476 22.9751 9.15874 22.798 8.86016C22.621 8.56173 22.2963 8.38838 21.9814 8.38838C21.8239 8.38838 21.6567 8.43652 21.519 8.51346C21.214 8.68681 21.0566 8.98538 21.0566 9.30329C21.0566 9.45731 21.1058 9.63066 21.1845 9.77522C21.6666 10.5937 22.6307 11.1138 23.6934 11.1138C24.6378 11.1138 25.4644 10.7864 26.0252 10.1893C26.4581 9.73668 26.6844 9.13954 26.6844 8.5424V8.36904C26.6352 7.82977 26.3302 7.07848 25.0904 6.50067V6.48147ZM34.0339 3.66925C33.3648 3.66925 32.7943 3.86181 32.3122 4.25679C31.8596 3.87155 31.2693 3.66925 30.6101 3.66925C30.1967 3.66925 29.8524 3.73673 29.5179 3.87155C29.3802 3.77513 29.1637 3.66925 28.8981 3.66925C28.3373 3.66925 27.8748 4.12184 27.8748 4.69004V10.1989C27.8748 10.7479 28.3373 11.2005 28.8981 11.2005C29.4589 11.2005 29.941 10.7479 29.941 10.1989V6.61629C29.941 6.52001 29.9705 6.25024 30.0788 6.02875C30.1967 5.78805 30.3444 5.70137 30.6198 5.70137C30.8953 5.70137 31.033 5.77845 31.161 6.02875C31.2693 6.25998 31.2988 6.52961 31.2988 6.62589V10.2085C31.2988 10.7575 31.7611 11.2102 32.3219 11.2102C32.8828 11.2102 33.3648 10.7575 33.3648 10.2085V6.62589C33.3648 6.52961 33.3943 6.25998 33.5026 6.02875C33.6108 5.78805 33.7486 5.70137 34.0438 5.70137C34.3389 5.70137 34.457 5.77845 34.575 6.02875C34.703 6.26958 34.7226 6.53921 34.7226 6.61629V10.1989C34.7226 10.7479 35.1851 11.2005 35.7459 11.2005C36.3067 11.2005 36.7888 10.7479 36.7888 10.1989V6.61629C36.7888 5.43174 36.0608 3.67885 34.0438 3.67885L34.0339 3.66925ZM42.6527 0C42.0919 0 41.6294 0.452585 41.6294 1.00159V10.1893C41.6294 10.7383 42.0919 11.1909 42.6527 11.1909C43.2135 11.1909 43.6956 10.7383 43.6956 10.1893V1.00159C43.6956 0.452585 43.2331 0 42.6527 0ZM55.8858 6.47174C55.3743 6.24064 54.8724 6.10582 54.7248 6.07688C54.0165 5.87473 54.0165 5.67244 54.0165 5.55682C54.0165 5.48948 54.2625 5.25839 54.833 5.25839C54.9905 5.25839 55.207 5.30652 55.3448 5.4028C55.5021 5.49908 55.6792 5.54722 55.8563 5.54722C56.1811 5.54722 56.4663 5.3932 56.6434 5.12343C56.7418 4.96942 56.791 4.80566 56.791 4.63231C56.791 4.31453 56.6337 4.01596 56.3384 3.84261C55.9056 3.57298 55.3448 3.41882 54.833 3.41882C53.2884 3.41882 52.1373 4.33374 52.1373 5.55682C52.1373 6.9534 53.2786 7.56974 54.2231 7.83937C54.2427 7.83937 54.2526 7.83938 54.292 7.85858C54.8429 7.98379 55.5316 8.3113 55.6104 8.50385C55.6104 8.65801 55.5611 8.80243 55.4332 8.92764C55.2365 9.14914 54.9019 9.25515 54.4887 9.25515C54.1837 9.25515 53.7804 9.14913 53.6033 8.85056C53.4262 8.55199 53.1014 8.37864 52.7866 8.37864C52.6292 8.37864 52.462 8.42678 52.3243 8.50385C52.0192 8.67721 51.8618 8.97578 51.8618 9.29355C51.8618 9.44771 51.9109 9.62106 51.9897 9.76548C52.4717 10.5841 53.436 11.1042 54.4986 11.1042C55.4431 11.1042 56.2696 10.7768 56.8304 10.1797C57.2632 9.72694 57.4896 9.12994 57.4896 8.5328V8.35944C57.4403 7.82018 57.1354 7.06887 55.8957 6.49107L55.8858 6.47174ZM50.1498 8.45572C50.0022 8.36904 49.835 8.3209 49.6677 8.3209C49.3333 8.3209 48.9987 8.50386 48.8118 8.81203C48.6248 9.1202 48.2116 9.23581 47.8869 9.23581H47.7098C47.3949 9.23581 46.972 9.1202 46.785 8.81203C46.598 8.50386 46.2635 8.3209 45.9291 8.3209C45.7617 8.3209 45.5944 8.36904 45.447 8.45572C45.1321 8.63867 44.9647 8.94684 44.9647 9.27435C44.9647 9.34183 44.9746 9.41877 44.9944 9.49585C45.014 9.59213 45.0534 9.68854 45.1025 9.76548C45.6043 10.6227 46.6177 11.1619 47.7196 11.1619C47.7491 11.1619 47.7786 11.1619 47.8083 11.1619C47.8378 11.1619 47.8673 11.1619 47.8968 11.1619C49.0085 11.1619 50.0121 10.6227 50.5139 9.76548C50.563 9.6788 50.5925 9.59213 50.6222 9.49585C50.6418 9.41877 50.6517 9.35143 50.6517 9.27435C50.6517 8.94684 50.4844 8.62907 50.1696 8.45572H50.1498Z" fill="#2F3A94"/>
<path d="M51.7264 24.1319L55.0152 21.0959C55.4627 20.7068 55.6769 20.2786 55.6769 19.831C55.6769 19.4808 55.5212 19.1305 55.2098 18.7801C54.5481 18.0407 53.4973 18.0796 52.8356 18.7801L48.3402 23.1198V15.1994C48.3402 14.7128 48.1845 14.3042 47.8536 13.9928C47.5423 13.662 47.1336 13.4868 46.6471 13.4868C46.1606 13.4868 45.752 13.662 45.4406 13.9928C45.1292 14.3237 44.954 14.7323 44.954 15.1994V29.6003C44.954 30.0869 45.1097 30.4955 45.4406 30.8069C45.752 31.1377 46.1606 31.3129 46.6471 31.3129C47.1336 31.3129 47.5423 31.1377 47.8536 30.8069C48.165 30.476 48.3402 30.0674 48.3402 29.6003V27.2844L49.177 26.506L53.1664 30.729C53.7697 31.3907 54.6843 31.5269 55.5407 30.8458C55.9298 30.5345 56.1245 30.1257 56.1245 29.6198C56.1245 29.1528 55.9493 28.744 55.5991 28.3742L51.7264 24.1513V24.1319ZM66.925 19.9284C66.3607 19.3444 65.699 18.858 64.9596 18.5272C63.247 17.7488 61.2231 17.8655 59.5301 18.8386C58.5765 19.3834 57.7787 20.1813 57.1948 21.2127C56.611 22.2442 56.2996 23.4897 56.2996 24.9298C56.2996 26.1753 56.572 27.3039 57.117 28.2769C57.6618 29.2695 58.4597 30.0674 59.4718 30.6317C60.4836 31.196 61.6902 31.4881 63.0524 31.4881C63.8698 31.4881 64.6482 31.3517 65.4072 31.0793C66.1661 30.8069 66.7694 30.4955 67.1976 30.1452C67.7035 29.7366 67.9566 29.289 67.9566 28.7635C67.9566 28.3742 67.8203 28.0435 67.5285 27.7515C67.0614 27.2651 66.3413 27.1482 65.5434 27.557C65.3682 27.6542 65.1737 27.7709 64.9596 27.9071C64.7844 28.024 64.5315 28.1213 64.2201 28.2185C63.9087 28.2964 63.4612 28.3549 62.9162 28.3549C62.3714 28.3549 61.8069 28.2185 61.301 27.9461C60.795 27.6737 60.3864 27.2651 60.0555 26.7201C59.9388 26.506 59.8219 26.2725 59.7442 26.0001H67.0614C67.509 26.0001 67.8981 25.8639 68.229 25.5913C68.5793 25.2994 68.7545 24.9298 68.7739 24.4627C68.7739 23.5869 68.5988 22.7502 68.2679 21.9717C67.9371 21.1933 67.4895 20.5121 66.925 19.9284ZM59.7637 23.1004C59.7637 23.1004 59.8025 23.0031 59.8025 22.9447C59.9582 22.4971 60.1723 22.1274 60.4252 21.8744C60.6783 21.6214 60.9897 21.4268 61.3593 21.3101C62.0989 21.0765 63.033 21.0376 63.8115 21.4268C64.2006 21.6214 64.5315 21.8744 64.7844 22.2052C64.9985 22.4776 65.1347 22.789 65.1932 23.1004H59.7637ZM75.7019 28.1992C75.4683 28.2964 75.1959 28.3159 74.9429 28.1992C74.8455 28.1602 74.7872 28.1018 74.7288 28.0045C74.6705 27.9073 74.651 27.7904 74.651 27.6153V21.6019H76.0132C76.4608 21.6019 76.85 21.4463 77.142 21.1544C77.4534 20.8625 77.6091 20.4927 77.6091 20.0451C77.6091 19.5975 77.4534 19.2082 77.142 18.8969C76.8306 18.5855 76.4608 18.4298 76.0132 18.4298H74.651V17.2233C74.651 16.7367 74.4954 16.3281 74.184 16.0167C73.8726 15.6859 73.4638 15.5107 72.9773 15.5107C72.4909 15.5107 72.0822 15.6664 71.7513 15.9973C71.4206 16.3281 71.2648 16.7367 71.2648 17.2233V18.4298H70.4865C70.0388 18.4298 69.6496 18.5855 69.3577 18.8774C69.0464 19.1694 68.8907 19.5391 68.8907 19.9867C68.8907 20.4342 69.0464 20.8235 69.3382 21.1154C69.6496 21.4268 70.0194 21.5825 70.4865 21.5825H71.2648V27.7126C71.2648 28.5299 71.4011 29.1721 71.6541 29.6392C71.907 30.1257 72.2378 30.476 72.6271 30.729C73.0163 30.9626 73.425 31.0988 73.8531 31.1572C74.2812 31.2155 74.651 31.235 74.9818 31.235C75.5657 31.235 76.13 31.0793 76.6555 30.7679C77.2198 30.4371 77.5117 29.9895 77.5117 29.4447C77.5117 29.0164 77.3949 28.6662 77.1615 28.4132C76.7332 27.9266 76.13 27.9461 75.7019 28.1407V28.1992ZM17.4173 18.7996C16.7751 18.2741 15.8605 18.0017 14.6733 18.0017C13.9533 18.0017 13.2721 18.1574 12.6883 18.4688C12.1045 18.7606 11.618 19.1499 11.2093 19.578C10.9953 19.7922 10.8201 20.0061 10.6644 20.2203C10.4504 19.7532 10.1585 19.3444 9.80817 18.9748C9.16596 18.3325 8.17345 17.9822 6.85014 17.9822C6.30524 17.9822 5.79927 18.0796 5.33221 18.2546C4.86515 18.4298 4.45648 18.6634 4.06726 18.9358C3.79482 19.1305 3.56129 19.3444 3.34723 19.5586C3.28885 19.2472 3.13316 18.9553 2.89963 18.7217C2.58826 18.391 2.1796 18.2353 1.69308 18.2353C1.20656 18.2353 0.797887 18.4103 0.486515 18.7217C0.175146 19.0525 0 19.4613 0 19.9284V29.5614C0 30.0479 0.155686 30.4566 0.486515 30.7679C0.797887 31.0988 1.20656 31.2739 1.69308 31.2739C2.1796 31.2739 2.58826 31.0988 2.89963 30.7679C3.21101 30.4371 3.38615 30.0284 3.38615 29.5614V23.5869C3.38615 23.1198 3.48346 22.6917 3.67806 22.3414C3.85321 21.9718 4.12565 21.6992 4.51487 21.4657C4.88462 21.2516 5.35167 21.1349 5.87711 21.1349C6.40255 21.1349 6.83067 21.2321 7.10313 21.4463C7.37557 21.6604 7.57019 21.9328 7.6675 22.2831C7.78425 22.6723 7.84263 23.1004 7.84263 23.5869V29.5614C7.84263 30.0479 7.99833 30.4566 8.32915 30.7679C8.64052 31.0988 9.04919 31.2739 9.53571 31.2739C10.0222 31.2739 10.4309 31.0988 10.7423 30.7679C11.0536 30.4371 11.2288 30.0284 11.2288 29.5614V23.5869C11.2288 23.1198 11.3261 22.7112 11.5207 22.3414C11.7153 21.9718 11.9683 21.6992 12.3575 21.4657C12.7273 21.2516 13.1943 21.1349 13.7197 21.1349C14.2452 21.1349 14.6733 21.2321 14.9458 21.4463C15.2182 21.6604 15.4129 21.9328 15.5101 22.2831C15.6269 22.6723 15.6853 23.1004 15.6853 23.5869V29.5614C15.6853 30.0479 15.841 30.4566 16.1718 30.7679C16.4832 31.0988 16.8918 31.2739 17.3784 31.2739C17.8649 31.2739 18.2735 31.0988 18.5849 30.7679C18.8963 30.4371 19.0714 30.0284 19.0714 29.5614V23.5869C19.0714 22.5945 18.9547 21.6604 18.7406 20.843C18.5071 19.9867 18.0789 19.2861 17.4368 18.7801L17.4173 18.7996ZM43.2025 18.4688C42.541 17.9239 41.5484 17.9239 40.6143 18.1574C40.2057 18.2546 39.7969 18.4103 39.4468 18.6244C39.0769 18.8386 38.7461 19.0915 38.4542 19.4029C38.4347 19.4223 38.4152 19.4418 38.3958 19.4613C38.318 19.1888 38.1818 18.9553 37.9871 18.7412C37.6758 18.4103 37.2672 18.2546 36.7806 18.2546C36.2941 18.2546 35.8855 18.4298 35.5741 18.7412C35.2627 19.072 35.0876 19.4808 35.0876 19.9478V29.5809C35.0876 30.0674 35.2432 30.476 35.5741 30.7874C35.8855 31.1182 36.2941 31.2934 36.7806 31.2934C37.2672 31.2934 37.6758 31.1182 37.9871 30.7874C38.2985 30.4566 38.4737 30.0479 38.4737 29.5809V24.054C38.4737 23.5286 38.5515 23.0809 38.6683 22.6917C38.7851 22.3025 38.9797 21.9911 39.1937 21.7382C39.4078 21.4852 39.6413 21.3101 39.8943 21.1933C40.4197 20.9597 40.9452 20.9792 41.3343 21.1544C41.9377 21.4268 42.7161 21.4463 43.3194 20.9402C43.6503 20.6678 43.8253 20.2203 43.8253 19.617C43.8253 19.1694 43.6308 18.7801 43.2415 18.4688H43.2025ZM31.4094 18.0017C30.923 18.0017 30.5142 18.1769 30.2029 18.5077C30.0082 18.7024 29.872 18.9358 29.7942 19.1888C29.7748 19.1888 29.7553 19.1499 29.7358 19.1305C29.3077 18.7996 28.7822 18.5272 28.1984 18.3131C27.6146 18.0989 26.9529 17.9822 26.2524 17.9822C25.1626 17.9822 24.1506 18.2741 23.2554 18.858C22.3603 19.4418 21.6402 20.2397 21.1148 21.2516C20.5893 22.2636 20.3169 23.4312 20.3169 24.7546C20.3169 26.0779 20.5893 27.2261 21.1148 28.238C21.6402 29.25 22.3798 30.0674 23.2749 30.6317C24.1896 31.2155 25.2209 31.5074 26.3497 31.5074C26.9724 31.5074 27.5562 31.4101 28.1012 31.196C28.6265 31.0015 29.0936 30.7484 29.4829 30.4566C29.5996 30.3788 29.7163 30.2814 29.8137 30.1841C29.8915 30.4176 30.0277 30.6122 30.1834 30.7874C30.4948 31.1182 30.9035 31.2934 31.3901 31.2934C31.8765 31.2934 32.2852 31.1182 32.5966 30.7874C32.908 30.4566 33.0831 30.0479 33.0831 29.5809V19.7337C33.0831 19.2277 32.9274 18.8191 32.5966 18.5077C32.2852 18.1963 31.8765 18.0212 31.3901 18.0212L31.4094 18.0017ZM29.4439 26.6228C29.1715 27.1677 28.8017 27.5958 28.3541 27.9071C27.8871 28.2185 27.3617 28.3742 26.7195 28.3742C26.0773 28.3742 25.5713 28.2185 25.1042 27.9071C24.6371 27.5958 24.2675 27.1677 24.0144 26.6228C23.742 26.0779 23.6058 25.4551 23.6058 24.7741C23.6058 24.0929 23.742 23.4507 24.0144 22.9059C24.2675 22.3609 24.6371 21.9328 25.1042 21.6214C25.5713 21.3101 26.1162 21.1544 26.7195 21.1544C27.3228 21.1544 27.8871 21.3101 28.3541 21.6214C28.8212 21.9328 29.191 22.3609 29.4634 22.9059C29.7358 23.4507 29.872 24.0929 29.872 24.7741C29.872 25.4551 29.7358 26.0779 29.4634 26.6228H29.4439Z" fill="#80579D"/>
</g>
<defs>
<clipPath id="clip0_2850_24626">
<rect width="77.9124" height="32" fill="white"/>
</clipPath>
</defs>
</svg>
