<svg width="16" height="16" viewBox="0 0 16 16" fill="none" xmlns="http://www.w3.org/2000/svg">
<path d="M9.36865 9.37092H13.2891C14.0499 9.37092 14.6667 8.75416 14.6667 7.99336C14.6667 7.23255 14.0499 6.61579 13.2891 6.61579H9.36865V2.69536C9.36865 1.94295 8.75871 1.33301 8.0063 1.33301C7.2539 1.33301 6.64396 1.94295 6.64396 2.69535V6.61579H2.7109C1.95009 6.61579 1.33333 7.23255 1.33333 7.99336C1.33333 8.75416 1.95009 9.37092 2.7109 9.37092H6.64396V13.304C6.64396 14.0564 7.2539 14.6663 8.0063 14.6663C8.75871 14.6663 9.36865 14.0564 9.36865 13.304V9.37092Z" fill="#05BC66"/>
</svg>
