<svg width="36" height="37" viewBox="0 0 36 37" fill="none" xmlns="http://www.w3.org/2000/svg">
<mask id="mask0_35873_103629" style="mask-type:alpha" maskUnits="userSpaceOnUse" x="0" y="0" width="36" height="37">
<rect y="0.876068" width="36" height="36" fill="#D9D9D9"/>
</mask>
<g mask="url(#mask0_35873_103629)">
<path d="M10.5 27.8761C10.075 27.8761 9.71875 27.7323 9.43125 27.4448C9.14375 27.1573 9 26.8011 9 26.3761V23.3761H28.5V9.87607H31.5C31.925 9.87607 32.2812 10.0198 32.5687 10.3073C32.8562 10.5948 33 10.9511 33 11.3761V33.8761L27 27.8761H10.5ZM3 26.3761V5.37607C3 4.95107 3.14375 4.59482 3.43125 4.30732C3.71875 4.01982 4.075 3.87607 4.5 3.87607H24C24.425 3.87607 24.7813 4.01982 25.0688 4.30732C25.3563 4.59482 25.5 4.95107 25.5 5.37607V18.8761C25.5 19.3011 25.3563 19.6573 25.0688 19.9448C24.7813 20.2323 24.425 20.3761 24 20.3761H9L3 26.3761ZM22.5 17.3761V6.87607H6V19.0636L7.725 17.3761H22.5Z" fill="#75428E"/>
</g>
</svg>
