<svg width="20" height="22" viewBox="0 0 20 22" fill="none" xmlns="http://www.w3.org/2000/svg">
<path fill-rule="evenodd" clip-rule="evenodd" d="M19.9967 3.50659L20 3.48671L19.9801 3.4763C18.6414 2.87564 17.1566 2.67851 15.7075 2.90905C14.2585 3.1396 12.9082 3.78782 11.822 4.77428L11.7787 4.81428L11.7685 4.75771C11.5375 3.7188 11.0563 2.75203 10.3666 1.94141C9.67698 1.13079 8.7998 0.500866 7.81132 0.106376L7.78458 0.0964355L7.77133 0.120104C7.3359 0.928721 7.07631 1.82024 7.00958 2.73621C6.94284 3.65218 7.07048 4.57192 7.38411 5.4351C7.69719 6.29855 8.19011 7.08565 8.83023 7.74429C9.47036 8.40293 10.2431 8.91809 11.0973 9.25567C12.0606 9.63897 13.1017 9.78632 14.1337 9.68544C15.1656 9.58456 16.1584 9.23837 17.0293 8.67575C17.9002 8.11314 18.624 7.35041 19.1402 6.4512C19.6564 5.55199 19.95 4.54238 19.9967 3.50659ZM19.5693 13.0914C19.576 13.0305 19.5794 12.9693 19.5795 12.908C19.5823 12.4935 19.4381 12.0914 19.1724 11.7733C19.0237 11.5876 18.8394 11.4335 18.6303 11.3201C18.4212 11.2067 18.1916 11.1363 17.9548 11.1129C17.895 11.1061 17.8348 11.1027 17.7745 11.1028C17.3593 11.1012 16.9567 11.2453 16.6367 11.5099C16.4513 11.6598 16.2972 11.8449 16.1832 12.0545C16.0693 12.264 15.9978 12.494 15.9728 12.7312C15.6561 15.9042 13.0052 18.2967 9.80997 18.2967C6.39315 18.2967 3.61042 15.5139 3.61042 12.0971C3.60687 10.4828 4.23846 8.93194 5.36877 7.77943C5.70051 7.43515 5.88281 6.97376 5.87598 6.4957C5.86916 6.01765 5.67375 5.56165 5.33232 5.22699C4.98824 4.89375 4.52628 4.71021 4.04733 4.71646C3.56837 4.72272 3.11136 4.91825 2.7761 5.26036C0.98769 7.10558 0 9.53471 0 12.0971C0 17.5026 4.40096 21.9036 9.80973 21.9036C14.8682 21.9036 19.0623 18.1132 19.5693 13.0914Z" fill="#05BC66"/>
</svg>
