<svg width="20" height="19" viewBox="0 0 20 19" fill="none" xmlns="http://www.w3.org/2000/svg">
<path fill-rule="evenodd" clip-rule="evenodd" d="M10 0.5C14.74 0.5 19 4.23 19 9.72C19.59 10.03 20 10.64 20 11.34V13.64C20 14.36 19.59 14.97 19 15.28V16.5C19 17.6 18.1 18.5 17 18.5H10C9.45 18.5 9 18.05 9 17.5C9 16.95 9.45 16.5 10 16.5H17V9.4C17 5.46 13.74 2.28 9.78 2.4C5.95 2.51 3 5.86 3 9.69V14.5C3 15.05 2.55 15.5 2 15.5C0.9 15.5 0 14.6 0 13.5V11.5C0 10.76 0.4 10.12 1 9.78C1 4.15 5.31 0.5 10 0.5ZM8 10.5C8 11.0523 7.55228 11.5 7 11.5C6.44772 11.5 6 11.0523 6 10.5C6 9.94771 6.44772 9.5 7 9.5C7.55228 9.5 8 9.94771 8 10.5ZM13 11.5C13.5523 11.5 14 11.0523 14 10.5C14 9.94771 13.5523 9.5 13 9.5C12.4477 9.5 12 9.94771 12 10.5C12 11.0523 12.4477 11.5 13 11.5ZM10.05 3.5C13.04 3.5 15.52 5.68 16 8.53C12.88 8.5 10.19 6.69 8.87997 4.06C8.34997 6.74 6.48997 8.94 4.01997 9.95C3.75997 6.01 7.01997 3.5 10.05 3.5Z" fill="#262626"/>
</svg>
